<?xml version="1.0" standalone="no"?>
<!DOCTYPE svg PUBLIC "-//W3C//DTD SVG 20010904//EN"
 "http://www.w3.org/TR/2001/REC-SVG-20010904/DTD/svg10.dtd">
<svg version="1.0" xmlns="http://www.w3.org/2000/svg"
 width="16.000000pt" height="16.000000pt" viewBox="0 0 16.000000 16.000000"
 preserveAspectRatio="xMidYMid meet">
<metadata>
Created by potrace 1.11, written by Peter Selinger 2001-2013
</metadata>
<g transform="translate(0.000000,16.000000) scale(0.002125,-0.002125)"
fill="#000000" stroke="none">
<path d="M952 6381 c-39 -19 -952 -942 -952 -962 0 -9 6 -22 13 -28 10 -8 318
-12 1101 -13 l1088 -3 -74 -75 c-311 -319 -541 -691 -678 -1100 -25 -74 -61
-198 -67 -230 -2 -14 -11 -53 -19 -88 -8 -35 -17 -87 -20 -115 -4 -29 -8 -54
-9 -57 -2 -3 -7 -48 -11 -100 -15 -169 -8 -518 11 -590 2 -8 6 -37 9 -65 11
-99 85 -387 133 -514 120 -322 261 -571 481 -846 101 -127 274 -308 371 -388
l67 -55 1365 -3 c1146 -3 1368 -1 1389 10 14 8 79 60 145 115 66 56 129 108
140 117 11 10 41 34 66 55 71 61 135 115 254 214 61 50 121 101 135 113 14 12
95 80 180 151 85 71 171 143 191 160 19 17 56 48 82 70 50 40 56 56 32 79 -13
13 -185 15 -1339 15 -729 0 -1333 3 -1343 6 -38 14 -219 297 -316 496 -127
259 -208 548 -232 823 -7 82 -8 318 -1 352 2 11 7 51 11 89 18 176 94 462 162
616 129 288 261 502 448 729 84 102 292 314 364 371 24 19 48 40 55 46 42 39
212 164 321 235 157 104 222 140 429 244 157 78 175 94 155 126 -12 21 -4096
21 -4137 0z"/>
<path d="M5416 6385 c-31 -17 -956 -945 -956 -960 0 -48 -64 -45 1064 -45
l1051 0 477 477 c475 475 503 506 466 530 -21 13 -2077 11 -2102 -2z"/>
<path d="M4342 4244 c-23 -10 -941 -920 -963 -956 -12 -18 -11 -24 5 -41 12
-12 174 -14 1060 -14 l1046 0 480 480 c268 268 480 487 480 497 0 10 -6 22
-12 28 -9 7 -339 11 -988 11 -536 1 -999 3 -1028 4 -29 2 -65 -2 -80 -9z"/>
</g>
</svg>
